Results
version=1
nRows=14
nColumns=24
inDegrees=yes
endheader
time	pelvis_tilt	pelvis_list	pelvis_rotation	pelvis_tx	pelvis_ty	pelvis_tz	hip_flexion_r	hip_adduction_r	hip_rotation_r	knee_angle_r	ankle_angle_r	subtalar_angle_r	mtp_angle_r	hip_flexion_l	hip_adduction_l	hip_rotation_l	knee_angle_l	ankle_angle_l	subtalar_angle_l	mtp_angle_l	lumbar_extension	lumbar_bending	lumbar_rotation
      1.22050000	     -1.71532531	      6.78416420	     -6.09359989	      0.22628335	      1.00991923	      0.27646649	     17.94509415	     -8.66167483	      0.31399520	    -67.30889811	     -5.71460228	    -10.46937816	      7.13524416	      7.96849691	     11.50313887	      4.90445161	    -10.58285014	      4.13955919	    -14.16502471	     -1.53855205	    -12.01087547	     -2.07929460	      0.88791458
      1.22466667	     -1.74928578	      6.64660969	     -6.23363357	      0.23129464	      1.01055271	      0.27647491	     18.49836671	     -8.39213600	      0.41524974	    -66.95822026	     -5.03678245	    -10.66162025	      7.10358810	      7.52772812	     11.37428272	      4.84075076	    -10.26653774	      4.21596272	    -14.14294066	     -1.56193961	    -11.98856055	     -1.87802941	      0.78461552
      1.22883333	     -1.76878855	      6.50496389	     -6.37177697	      0.23629150	      1.01119541	      0.27648453	     19.01846091	     -8.11353824	      0.51705940	    -66.54458423	     -4.35258839	    -10.84169400	      7.07365840	      7.06994037	     11.24409119	      4.77651816	     -9.94601527	      4.28150931	    -14.11297195	     -1.58599392	    -11.98933199	     -1.65885750	      0.67372604
      1.23300000	     -1.78543660	      6.33693085	     -6.50477516	      0.24124953	      1.01184151	      0.27648799	     19.51436094	     -7.79980745	      0.62010346	    -66.06436726	     -3.67177472	    -10.95731853	      6.99854493	      6.61158914	     11.08718938	      4.71848753	     -9.63546301	      4.34628722	    -14.04765816	     -1.64076988	    -12.03705729	     -1.36744439	      0.47552194
      1.23716667	     -1.81115524	      6.17733752	     -6.62325103	      0.24626211	      1.01247399	      0.27649973	     19.99172555	     -7.49667229	      0.70159720	    -65.51288148	     -2.98504716	    -11.15060028	      6.95776268	      6.15607263	     10.93746195	      4.64325567	     -9.31562617	      4.40700434	    -14.00712012	     -1.67350646	    -12.02535785	     -1.13478652	      0.37311627
      1.24133333	     -1.87165869	      6.00158198	     -6.70051844	      0.25124423	      1.01303923	      0.27648230	     20.47901308	     -7.17402890	      0.75462505	    -64.90120818	     -2.30669459	    -11.27329157	      5.32176367	      5.75305679	     10.76678810	      4.57541140	     -9.04044695	      4.57591896	    -13.77456422	     -2.77802574	    -11.98163845	     -0.82036521	      0.01929882
      1.24550000	     -1.84716724	      5.83526195	     -6.84812137	      0.25623495	      1.01368553	      0.27654038	     20.87358948	     -6.85053752	      0.87755380	    -64.23443580	     -1.62780510	    -11.38595028	      5.28857654	      5.22950801	     10.61551481	      4.49305686	     -8.68366014	      4.60298136	    -13.77967531	     -2.80392965	    -12.06339273	     -0.59764709	     -0.01347090
      1.24966667	     -1.87757735	      5.68931023	     -6.95415203	      0.26121143	      1.01421541	      0.27655471	     21.31161346	     -6.55296082	      0.96840012	    -63.52520980	     -0.94266220	    -11.54536710	      5.27150592	      4.78162305	     10.48240845	      4.42362926	     -8.36200072	      4.63789336	    -13.74483715	     -2.82022444	    -12.07060155	     -0.37129649	     -0.08374571
      1.25383333	     -1.90911208	      5.52727917	     -7.05653110	      0.26619465	      1.01473853	      0.27657986	     21.72395627	     -6.23409705	      1.05995309	    -62.74738490	     -0.28676879	    -11.66971551	      5.25216877	      4.32659911	     10.33157506	      4.35772422	     -8.02840074	      4.67996307	    -13.68744817	     -2.83811322	    -12.07802159	     -0.12014424	     -0.18258426
      1.25800000	     -1.87196788	      5.33644925	     -7.14720130	      0.27119756	      1.01536179	      0.27661421	     22.02141426	     -5.89620783	      1.13577812	    -61.88436030	      0.31332466	    -11.74913892	      5.18173213	      3.78823059	     10.15786926	      4.29564359	     -7.68915518	      4.75990022	    -13.56010343	     -2.88697941	    -12.16447100	      0.15923705	     -0.40908276
      1.26216667	     -1.91468222	      5.16596616	     -7.22876519	      0.27616865	      1.01582172	      0.27666362	     22.39967769	     -5.56230150	      1.22459851	    -60.98805885	      0.93256605	    -11.87070778	      5.14459101	      3.35564176	      9.99503323	      4.21396610	     -7.38273872	      4.79253776	    -13.49620355	     -2.91597331	    -12.15981498	      0.39849420	     -0.50819870
      1.26633333	     -1.89002346	      5.00040275	     -7.30986738	      0.28117222	      1.01633825	      0.27668507	     22.68634234	     -5.25564905	      1.30145411	    -60.03912232	      1.48173982	    -11.96491216	      5.06660697	      2.82911174	      9.84935247	      4.15109011	     -7.03253653	      4.86193880	    -13.37089796	     -2.96815686	    -12.23322817	      0.66536741	     -0.69595721
      1.27050000	     -1.92775903	      4.84949756	     -7.37997324	      0.28616813	      1.01672863	      0.27672419	     23.02574034	     -4.95163893	      1.38820705	    -59.04524757	      2.01274243	    -12.05945924	      4.99399343	      2.38259025	      9.71019265	      4.07860182	     -6.70683084	      4.90526550	    -13.27535702	     -3.01724822	    -12.22784591	      0.89688604	     -0.83908448
      1.27466667	     -1.93461851	      4.70081746	     -7.44311134	      0.29115851	      1.01710569	      0.27676606	     23.31553972	     -4.65754173	      1.47088559	    -58.00610920	      2.50519515	    -12.15488588	      4.90824982	      1.90197320	      9.57759257	      4.01111754	     -6.37961801	      4.95357267	    -13.16581453	     -3.07197251	    -12.26367252	      1.12636391	     -0.99658267
